<svg width="49" height="48" viewBox="0 0 49 48" fill="none" xmlns="http://www.w3.org/2000/svg">
<rect width="49" height="48" rx="8" fill="#1D2225"/>
<path d="M59.9999 39.2C59.9999 31.2 56.7999 28 48.7999 28H39.1999C31.1999 28 27.9999 31.2 27.9999 39.2V48.8C27.9999 56.8 31.1999 60 39.1999 60" stroke="white" stroke-width="3" stroke-linecap="round" stroke-linejoin="round"/>
<path d="M52.6999 36C51.5999 34.6 49.7599 34 46.9999 34H40.9999C35.9999 34 33.9999 36 33.9999 41V47C33.9999 49.76 34.5999 51.6 35.9799 52.7" stroke="white" stroke-width="3" stroke-linecap="round" stroke-linejoin="round"/>
<path d="M36.02 28V24" stroke="white" stroke-width="3" stroke-linecap="round" stroke-linejoin="round"/>
<path d="M43.9999 28V24" stroke="white" stroke-width="3" stroke-linecap="round" stroke-linejoin="round"/>
<path d="M51.9999 28V24" stroke="white" stroke-width="3" stroke-linecap="round" stroke-linejoin="round"/>
<path d="M59.9999 36H63.9999" stroke="white" stroke-width="3" stroke-linecap="round" stroke-linejoin="round"/>
<path d="M36.02 60V64" stroke="white" stroke-width="3" stroke-linecap="round" stroke-linejoin="round"/>
<path d="M23.9999 36H27.9999" stroke="white" stroke-width="3" stroke-linecap="round" stroke-linejoin="round"/>
<path d="M23.9999 44H27.9999" stroke="white" stroke-width="3" stroke-linecap="round" stroke-linejoin="round"/>
<path d="M23.9999 52H27.9999" stroke="white" stroke-width="3" stroke-linecap="round" stroke-linejoin="round"/>
<path d="M53.4199 57.1801C55.1762 57.1801 56.5999 55.7563 56.5999 54.0001C56.5999 52.2438 55.1762 50.8201 53.4199 50.8201C51.6637 50.8201 50.2399 52.2438 50.2399 54.0001C50.2399 55.7563 51.6637 57.1801 53.4199 57.1801Z" stroke="white" stroke-width="3" stroke-miterlimit="10" stroke-linecap="round" stroke-linejoin="round"/>
<path d="M42.82 54.9201V53.0601C42.82 51.9601 43.72 51.0601 44.82 51.0601C46.74 51.0601 47.52 49.7001 46.56 48.0401C46 47.0801 46.34 45.8401 47.3 45.3001L49.12 44.2401C49.96 43.7401 51.04 44.0401 51.54 44.8801L51.66 45.0801C52.62 46.7401 54.18 46.7401 55.14 45.0801L55.26 44.8801C55.76 44.0401 56.84 43.7601 57.68 44.2401L59.5 45.3001C60.46 45.8601 60.8 47.0801 60.24 48.0401C59.28 49.7001 60.06 51.0601 61.98 51.0601C63.08 51.0601 63.98 51.9601 63.98 53.0601V54.9201C63.98 56.0201 63.08 56.9201 61.98 56.9201C60.06 56.9201 59.28 58.2801 60.24 59.9401C60.8 60.9001 60.46 62.1401 59.5 62.6801L57.68 63.7401C56.84 64.2401 55.76 63.9401 55.26 63.1001L55.14 62.9001C54.18 61.2401 52.62 61.2401 51.66 62.9001L51.54 63.1001C51.04 63.9401 49.96 64.2201 49.12 63.7401L47.3 62.6801C46.34 62.1201 46 60.9001 46.56 59.9401C47.52 58.2801 46.74 56.9201 44.82 56.9201C43.72 56.9401 42.82 56.0401 42.82 54.9201Z" stroke="white" stroke-width="3" stroke-miterlimit="10" stroke-linecap="round" stroke-linejoin="round"/>
</svg>
