<svg width="148" height="40" viewBox="0 0 148 40" fill="none" xmlns="http://www.w3.org/2000/svg">
<path fill-rule="evenodd" clip-rule="evenodd" d="M32.1441 23.9183L32.1339 0L25.2953 3.35807C23.1405 4.41633 22.1123 6.08819 22.1123 8.47643L22.1807 32.4673L28.9249 29.1092C31.1059 28.0187 32.1441 26.3588 32.1441 23.9183ZM7.14331 28.8638L7.11914 40L13.9779 36.5716C16.0463 35.5375 17.0945 33.9379 17.0765 31.6202L16.9979 21.2605L9.16943 25.3428C7.86558 26.0229 7.14331 27.3851 7.14331 28.8638Z" fill="#3A78F2"/>
<path d="M50.737 13.68V10.82H63.145V13.68H58.525V26H55.357V13.68H50.737ZM64.2068 22.436V17.948C64.2068 15.572 65.3948 14.384 67.7708 14.384H70.6308C73.0068 14.384 74.1948 15.572 74.1948 17.948V21.314H67.2428V22.656C67.2428 23.1253 67.4775 23.36 67.9468 23.36H73.7548V25.01L72.4348 26H67.7708C65.3948 26 64.2068 24.812 64.2068 22.436ZM67.2428 18.982H71.1588V17.728C71.1588 17.2587 70.9242 17.024 70.4548 17.024H67.9468C67.4775 17.024 67.2428 17.2587 67.2428 17.728V18.982ZM77.0115 22.436V17.948C77.0115 15.572 78.1995 14.384 80.5755 14.384H84.6675L85.9875 15.374V17.024H80.7515C80.2822 17.024 80.0475 17.2587 80.0475 17.728V22.656C80.0475 23.1253 80.2822 23.36 80.7515 23.36H85.9875V25.01L84.6675 26H80.5755C78.1995 26 77.0115 24.812 77.0115 22.436ZM88.5742 26V9.72H91.6102V14.384H94.9982C97.3742 14.384 98.5622 15.572 98.5622 17.948V26H95.5262V17.728C95.5262 17.2587 95.2916 17.024 94.8222 17.024H91.6102V26H88.5742ZM99.6999 13.68V10.82H112.108V13.68H107.488V26H104.32V13.68H99.6999ZM116.079 26C113.703 26 112.515 24.834 112.515 22.502C112.515 20.17 113.703 19.004 116.079 19.004H119.115V17.728C119.115 17.2587 118.88 17.024 118.411 17.024H113.747V15.374L115.067 14.384H118.587C120.963 14.384 122.151 15.572 122.151 17.948V26H116.079ZM115.551 22.656C115.551 23.1253 115.786 23.36 116.255 23.36H119.115V21.336H116.255C115.786 21.336 115.551 21.5707 115.551 22.04V22.656ZM125.051 22.436V17.948C125.051 15.572 126.239 14.384 128.615 14.384H132.707L134.027 15.374V17.024H128.791C128.321 17.024 128.087 17.2587 128.087 17.728V22.656C128.087 23.1253 128.321 23.36 128.791 23.36H134.027V25.01L132.707 26H128.615C126.239 26 125.051 24.812 125.051 22.436ZM136.613 26V9.72H139.649V18.762L143.675 14.384H146.667L146.909 14.89L142.883 19.224L147.217 25.494L146.975 26H144.005L140.881 21.402L139.649 22.744V26H136.613Z" fill="white"/>
</svg>
